<svg height="512" viewBox="0 0 512 512" width="512" xmlns="http://www.w3.org/2000/svg"><g id="Filledoutline"><g fill="#0093b9"><path d="m288 144v-40h32v-24l-64-56-64 56v24h32v40z"/><path d="m120 144v-40h32v-24l-64-56-64 56v24h32v40z"/><path d="m456 392v-288h32v-24l-64-56-64 56v24h32v288z"/></g><path d="m40 168h288v256h-288z" fill="#f8bc1e"/><path d="m232 296h48v48h-48z" fill="#f9da62"/><path d="m328 304h-12a12 12 0 0 0 -12 12v20.305a63.7 63.7 0 0 1 -63.695 63.695h-36.305a12 12 0 0 0 -12 12v12h136z" fill="#f5a922"/><path d="m232 168h48v48h-48z" fill="#f9da62"/><path d="m328 176h-12a12 12 0 0 0 -12 12v20.305a63.7 63.7 0 0 1 -63.695 63.695h-36.305a12 12 0 0 0 -12 12v12h136z" fill="#f5a922"/><path d="m88 296h48v48h-48z" fill="#f9da62"/><path d="m184 304h-12a12 12 0 0 0 -12 12v20.305a63.7 63.7 0 0 1 -63.695 63.695h-36.305a12 12 0 0 0 -12 12v12h136z" fill="#f5a922"/><path d="m88 168h48v48h-48z" fill="#f9da62"/><path d="m184 176h-12a12 12 0 0 0 -12 12v20.305a63.7 63.7 0 0 1 -63.695 63.695h-36.305a12 12 0 0 0 -12 12v12h136z" fill="#f5a922"/><path d="m56 440h48v48h-48z" fill="#a17835"/><path d="m56 440h48v32h-48z" fill="#8b6639"/><path d="m232 440h48v48h-48z" fill="#a17835"/><path d="m232 440h48v32h-48z" fill="#8b6639"/><path d="m408 440h48v48h-48z" fill="#a17835"/><path d="m408 440h48v32h-48z" fill="#8b6639"/><path d="m24 424h464v32h-464z" fill="#a17835"/><path d="m488 416h-152v-248a8 8 0 0 0 -8-8h-288a8 8 0 0 0 -8 8v248h-8a8 8 0 0 0 -8 8v32a8 8 0 0 0 8 8h24v24a8 8 0 0 0 8 8h48a8 8 0 0 0 8-8v-24h112v24a8 8 0 0 0 8 8h48a8 8 0 0 0 8-8v-24h112v24a8 8 0 0 0 8 8h48a8 8 0 0 0 8-8v-24h24a8 8 0 0 0 8-8v-32a8 8 0 0 0 -8-8zm-296-112h32v40a8 8 0 0 0 8 8h48a8 8 0 0 0 8-8v-40h32v112h-128zm48 0h32v32h-32zm80-16h-128v-112h32v40a8 8 0 0 0 8 8h48a8 8 0 0 0 8-8v-40h32zm-80-112h32v32h-32zm-144 0h32v32h-32zm-48 0h32v40a8 8 0 0 0 8 8h48a8 8 0 0 0 8-8v-40h32v112h-128zm48 128h32v32h-32zm-48 0h32v40a8 8 0 0 0 8 8h48a8 8 0 0 0 8-8v-40h32v112h-128zm48 176h-32v-16h32zm176 0h-32v-16h32zm176 0h-32v-16h32zm32-32h-448v-16h448z"/><path d="m288 384h16v16h-16z"/><path d="m144 384h16v16h-16z"/><path d="m288 256h16v16h-16z"/><path d="m144 256h16v16h-16z"/><path d="m493.268 73.979-64-56a8 8 0 0 0 -10.536 0l-64 56a8 8 0 0 0 -2.732 6.021v24a8 8 0 0 0 8 8h24v248h16v-256a8 8 0 0 0 -8-8h-24v-12.37l56-49 56 49v12.37h-24a8 8 0 0 0 -8 8v256h16v-248h24a8 8 0 0 0 8-8v-24a8 8 0 0 0 -2.732-6.021z"/><path d="m384 376h16v16h-16z"/><path d="m448 376h16v16h-16z"/><path d="m192 112h24v32h16v-40a8 8 0 0 0 -8-8h-24v-12.37l56-49 56 49v12.37h-24a8 8 0 0 0 -8 8v40h16v-32h24a8 8 0 0 0 8-8v-24a8 8 0 0 0 -2.732-6.021l-64-56a8 8 0 0 0 -10.536 0l-64 56a8 8 0 0 0 -2.732 6.021v24a8 8 0 0 0 8 8z"/><path d="m24 112h24v32h16v-40a8 8 0 0 0 -8-8h-24v-12.37l56-49 56 49v12.37h-24a8 8 0 0 0 -8 8v40h16v-32h24a8 8 0 0 0 8-8v-24a8 8 0 0 0 -2.732-6.021l-64-56a8 8 0 0 0 -10.536 0l-64 56a8 8 0 0 0 -2.732 6.021v24a8 8 0 0 0 8 8z"/></g></svg>