<svg id="Capa_1" enable-background="new 0 0 512 512" height="512" viewBox="0 0 512 512" width="512" xmlns="http://www.w3.org/2000/svg"><g><path d="m241 220v105c0 16.569 13.431 30 30 30s30-13.431 30-30l30-82.5-30-82.5c-33.137 0-60 26.863-60 60z" fill="#ffd4c4"/><circle cx="376" cy="65" fill="#ffebe3" r="65"/><path d="m301 160v352h60l45-187-45-165z" fill="#ffebe3"/><path d="m301 220v105c0 16.569 13.431 30 30 30s30-13.431 30-30l30-82.5-30-82.5c-33.137 0-60 26.863-60 60z" fill="#46c7c2"/><path d="m436 0-15.758 65 15.758 65c35.899 0 65-29.102 65-65s-29.101-65-65-65z" fill="#46c7c2"/><path d="m371 65c0 35.898 29.101 65 65 65v-130c-35.899 0-65 29.102-65 65z" fill="#38e8db"/><path d="m436 160-50 82.5 50 97.5h15v172h60v-352z" fill="#46c7c2"/><path d="m361 160v352h60v-172h15v-180z" fill="#38e8db"/><path d="m151 160-50 82.5 50 82.5c0 16.569 13.431 30 30 30s30-13.431 30-30v-105c0-33.137-26.863-60-60-60z" fill="#c680ff"/><path d="m76 0-45.758 65 45.758 65c35.899 0 65-29.102 65-65s-29.101-65-65-65z" fill="#c8a6ff"/><path d="m11 65c0 35.898 29.101 65 65 65v-130c-35.899 0-65 29.102-65 65z" fill="#cdc8fa"/><path d="m76 160-50 90 50 90h15v172h60v-352z" fill="#c8a6ff"/><path d="m1 160v352h60v-172h15v-180z" fill="#cdc8fa"/></g></svg>