<svg id="Capa_1" enable-background="new 0 0 512 512" height="512" viewBox="0 0 512 512" width="512" xmlns="http://www.w3.org/2000/svg"><g><path d="m206.034 450.686-88.925-88.925 44.577-24.1 66.931 8.292 1.517 60.156z" fill="#665e66"/><path d="m222.589 345.216-36.664 16.679-37.334 31.348-31.482-31.482 44.576-24.096z" fill="#454045"/><path d="m226.226 343.558-1.051 1.978-2.586-.32z" fill="#454045"/><path d="m413.899 342.824-7.325 84.073c-3.369 38.663-35.51 68.466-74.307 68.909l-78.067.896c-20.325.237-31.822-23.231-19.172-39.147l2.39-3.008 18.224-22.932-26.824-101.869-92.646-17.601-25.93 20.614c-3.956 3.142-8.375 4.801-12.785 5.192-13.331 1.205-26.548-9.086-26.373-24.364l.896-78.057c.453-38.807 30.256-70.938 68.909-74.307l76.522-6.665 7.562-.659 181.157 181.157z" fill="#da4a54"/><path d="m406.131 335.056c-9.529 12.743-52.199 8.91-63.779 20.489-39.713 39.714-86.71 9.592-86.71 9.592l-119.47-52.993-25.93 20.614c-3.956 3.142-8.375 4.801-12.785 5.192 14.217-56.887 43.577-110.775 88.08-155.279 10.158-10.158 20.81-19.532 31.874-28.114l7.562-.659z" fill="#c63d4f"/><path d="m497.426 203.935c-15.494 50.829-43.329 98.691-83.527 138.889-45.276 45.276-100.268 74.874-158.256 88.791l-119.47-119.47c13.928-57.979 43.525-112.97 88.802-158.246 40.198-40.198 88.06-68.033 138.889-83.527 46.996-14.33 147.892 86.555 133.562 133.563z" fill="#f6f9f9"/><path d="m508.715 59.068c-64.829 21.613-147.501 76.336-224.868 153.703-45.276 45.276-82.785 92.345-110.435 136.602l-37.231-37.231c13.918-57.979 43.515-112.97 88.791-158.246 77.367-77.367 183.167-108.973 283.743-94.828z" fill="#dae4ea"/><path d="m497.426 203.935-133.563-133.563c46.997-14.33 96.528-18.1 144.843-11.301 6.81 48.325 3.05 97.856-11.28 144.864z" fill="#da4a54"/><path d="m508.712 59.066c-48.315-6.799-97.847-3.029-144.843 11.301l41.628 41.628c36.809-24.503 72.073-42.545 103.215-52.929z" fill="#c63d4f"/><path d="m508.726 59.068c0 .01 0 .01-.01.021 0-.01 0-.01 0-.021z" fill="#dae4ea"/><path d="m82.611 422.216c-23.597 23.597-31.616 56.865-24.077 87.044 30.179 7.539 63.447-.48 87.044-24.077.655-.655 1.299-1.318 1.93-1.989 38.94-41.326-21.583-101.849-62.909-62.909-.669.633-1.332 1.276-1.988 1.931z" fill="#f4dd45"/><path d="m107.656 421.989c-14.296 14.296-19.155 34.452-14.587 52.736 18.284 4.567 38.44-.291 52.736-14.587.397-.397.787-.799 1.17-1.205 23.592-25.038-13.076-61.706-38.114-38.114-.406.384-.808.773-1.205 1.17z" fill="#da4a54"/><path d="m273.883 263.962-5.29-75.506c-.549-7.84-10.065-11.397-15.623-5.84l-12.822 12.822-20.888-20.888c25.686-45.531 18.522-104.584-21.504-142.565-45.366-43.048-117.412-42.579-162.247 1.023-46.941 45.651-47.338 120.717-1.19 166.865 38.033 38.033 95.706 44.446 140.369 19.25l20.887 20.887-12.822 12.822c-5.557 5.557-2 15.074 5.84 15.623l75.506 5.29c5.557.389 10.173-4.227 9.784-9.783z" fill="#f4dd45"/><circle cx="117.165" cy="117.027" fill="#eab14d" r="86.79"/><path d="m129.71 109.187c-1.786-.631-3.609-1.289-5.43-1.973v-30.494c3.722 1.102 6.112 2.895 6.833 3.495 3.28 2.728 8.152 2.282 10.881-.999 2.729-3.28 2.282-8.152-.998-10.881-1.576-1.31-7.59-5.854-16.715-7.424v-5.836c0-4.267-3.459-7.726-7.726-7.726s-7.726 3.459-7.726 7.726v6.397c-.807.192-1.621.402-2.451.652-10.088 3.039-17.623 11.662-19.667 22.504-1.868 9.914 1.328 19.49 8.341 24.991 3.529 2.767 7.879 5.303 13.775 7.962v39.362c-4.813-.475-8.102-1.824-13.516-5.366-3.571-2.336-8.36-1.335-10.696 2.236s-1.335 8.36 2.236 10.696c8.581 5.613 14.534 7.418 21.975 7.933v6.538c0 4.267 3.459 7.726 7.726 7.726s7.726-3.459 7.726-7.726v-7.234c14.721-3.341 24.172-15.739 26.228-27.967 2.628-15.621-5.536-29.198-20.796-34.592zm-25.121-11.727c-2.419-1.897-3.476-5.811-2.692-9.97.66-3.505 2.821-7.654 6.931-9.758v22.541c-1.57-.91-3.006-1.846-4.239-2.813zm30.681 43.755c-.945 5.617-4.68 11.555-10.989 14.337v-31.896c.095.034.184.066.28.1 11.95 4.225 11.217 14.431 10.709 17.459z" fill="#df751c"/></g></svg>