<?xml version="1.0" encoding="iso-8859-1"?>
<!-- Generator: Adobe Illustrator 19.0.0, SVG Export Plug-In . SVG Version: 6.00 Build 0)  -->
<svg version="1.1" id="Capa_1" xmlns="http://www.w3.org/2000/svg" xmlns:xlink="http://www.w3.org/1999/xlink" x="0px" y="0px"
	 viewBox="0 0 395.947 395.947" style="enable-background:new 0 0 395.947 395.947;" xml:space="preserve">
<g>
	<path style="fill:#EA3457;" d="M389.12,395.947h-13.653c-3.768,0-6.827-3.055-6.827-6.827c0-3.772,3.058-6.827,6.827-6.827h6.827
		v-6.827c0-3.772,3.058-6.827,6.827-6.827c3.768,0,6.827,3.055,6.827,6.827v13.653C395.947,392.892,392.888,395.947,389.12,395.947z
		"/>
	<path style="fill:#EA3457;" d="M343.197,395.947h-32.27c-3.768,0-6.827-3.055-6.827-6.827c0-3.772,3.058-6.827,6.827-6.827h32.27
		c3.768,0,6.827,3.055,6.827,6.827C350.024,392.892,346.965,395.947,343.197,395.947z M278.654,395.947h-32.27
		c-3.768,0-6.827-3.055-6.827-6.827c0-3.772,3.058-6.827,6.827-6.827h32.27c3.768,0,6.827,3.055,6.827,6.827
		C285.481,392.892,282.423,395.947,278.654,395.947z"/>
	<path style="fill:#EA3457;" d="M214.112,395.947h-32.27c-3.768,0-6.827-3.055-6.827-6.827c0-3.772,3.058-6.827,6.827-6.827h32.27
		c3.768,0,6.827,3.055,6.827,6.827C220.938,392.892,217.88,395.947,214.112,395.947z M149.565,395.947h-32.27
		c-3.768,0-6.827-3.055-6.827-6.827c0-3.772,3.058-6.827,6.827-6.827h32.27c3.768,0,6.827,3.055,6.827,6.827
		C156.392,392.892,153.337,395.947,149.565,395.947z M85.023,395.947h-32.27c-3.768,0-6.827-3.055-6.827-6.827
		c0-3.772,3.058-6.827,6.827-6.827h32.27c3.768,0,6.827,3.055,6.827,6.827C91.849,392.892,88.794,395.947,85.023,395.947z"/>
	<path style="fill:#EA3457;" d="M20.48,395.947H6.827c-3.768,0-6.827-3.055-6.827-6.827v-13.653c0-3.772,3.058-6.827,6.827-6.827
		s6.827,3.055,6.827,6.827v6.827h6.827c3.768,0,6.827,3.055,6.827,6.827C27.307,392.892,24.248,395.947,20.48,395.947z"/>
	<path style="fill:#EA3457;" d="M6.827,350.02c-3.768,0-6.827-3.055-6.827-6.827v-32.273c0-3.772,3.058-6.827,6.827-6.827
		s6.827,3.055,6.827,6.827v32.273C13.653,346.965,10.595,350.02,6.827,350.02z M6.827,285.481c-3.768,0-6.827-3.055-6.827-6.827
		v-32.273c0-3.772,3.058-6.827,6.827-6.827s6.827,3.055,6.827,6.827v32.273C13.653,282.426,10.595,285.481,6.827,285.481z"/>
	<path style="fill:#EA3457;" d="M6.827,220.935c-3.768,0-6.827-3.055-6.827-6.827v-32.273c0-3.772,3.058-6.827,6.827-6.827
		s6.827,3.055,6.827,6.827v32.273C13.653,217.88,10.595,220.935,6.827,220.935z M6.827,156.392c-3.768,0-6.827-3.055-6.827-6.827
		v-32.273c0-3.772,3.058-6.827,6.827-6.827s6.827,3.055,6.827,6.827v32.273C13.653,153.341,10.595,156.392,6.827,156.392z
		 M6.827,91.846C3.058,91.846,0,88.791,0,85.019V52.746c0-3.772,3.058-6.827,6.827-6.827s6.827,3.055,6.827,6.827v32.273
		C13.653,88.794,10.595,91.846,6.827,91.846z"/>
	<path style="fill:#EA3457;" d="M6.827,27.307C3.058,27.307,0,24.252,0,20.48V6.827C0,3.055,3.058,0,6.827,0H20.48
		c3.768,0,6.827,3.055,6.827,6.827s-3.058,6.827-6.827,6.827h-6.827v6.827C13.653,24.252,10.595,27.307,6.827,27.307z"/>
	<path style="fill:#EA3457;" d="M149.562,13.653h-32.27c-3.768,0-6.827-3.055-6.827-6.827S113.524,0,117.292,0h32.27
		c3.768,0,6.827,3.055,6.827,6.827S153.334,13.653,149.562,13.653z M85.019,13.653H52.75c-3.768,0-6.827-3.055-6.827-6.827
		S48.981,0,52.75,0h32.27c3.768,0,6.827,3.055,6.827,6.827S88.791,13.653,85.019,13.653z"/>
	<path style="fill:#EA3457;" d="M343.194,13.653h-32.27c-3.768,0-6.827-3.055-6.827-6.827S307.156,0,310.924,0h32.27
		c3.768,0,6.827,3.055,6.827,6.827S346.962,13.653,343.194,13.653z M278.651,13.653h-32.27c-3.768,0-6.827-3.055-6.827-6.827
		S242.613,0,246.381,0h32.27c3.768,0,6.827,3.055,6.827,6.827S282.419,13.653,278.651,13.653z M214.108,13.653h-32.27
		c-3.768,0-6.827-3.055-6.827-6.827S178.07,0,181.839,0h32.27c3.768,0,6.827,3.055,6.827,6.827S217.876,13.653,214.108,13.653z"/>
	<path style="fill:#EA3457;" d="M389.12,27.307c-3.768,0-6.827-3.055-6.827-6.827v-6.827h-6.827c-3.768,0-6.827-3.055-6.827-6.827
		S371.698,0,375.467,0h13.653c3.768,0,6.827,3.055,6.827,6.827V20.48C395.947,24.252,392.888,27.307,389.12,27.307z"/>
	<path style="fill:#EA3457;" d="M389.12,156.392c-3.768,0-6.827-3.055-6.827-6.827v-32.273c0-3.772,3.058-6.827,6.827-6.827
		c3.768,0,6.827,3.055,6.827,6.827v32.273C395.947,153.341,392.888,156.392,389.12,156.392z M389.12,91.853
		c-3.768,0-6.827-3.055-6.827-6.827V52.753c0-3.772,3.058-6.827,6.827-6.827c3.768,0,6.827,3.055,6.827,6.827v32.273
		C395.947,88.801,392.888,91.853,389.12,91.853z"/>
	<path style="fill:#EA3457;" d="M389.12,350.027c-3.768,0-6.827-3.055-6.827-6.827v-32.273c0-3.772,3.058-6.827,6.827-6.827
		c3.768,0,6.827,3.055,6.827,6.827V343.2C395.947,346.972,392.888,350.027,389.12,350.027z M389.12,285.481
		c-3.768,0-6.827-3.055-6.827-6.827v-32.273c0-3.772,3.058-6.827,6.827-6.827c3.768,0,6.827,3.055,6.827,6.827v32.273
		C395.947,282.426,392.888,285.481,389.12,285.481z M389.12,220.942c-3.768,0-6.827-3.055-6.827-6.827v-32.273
		c0-3.772,3.058-6.827,6.827-6.827c3.768,0,6.827,3.055,6.827,6.827v32.273C395.947,217.887,392.888,220.942,389.12,220.942z"/>
</g>
<polyline style="fill:#FFE600;" points="197.973,264.448 197.973,389.12 6.827,389.12 6.827,6.827 197.973,6.827 197.973,198.407 
	"/>
<path style="fill:#602F75;" d="M197.973,395.947H6.827c-3.768,0-6.827-3.055-6.827-6.827V6.827C0,3.055,3.058,0,6.827,0h191.147
	c3.768,0,6.827,3.055,6.827,6.827v191.58c0,3.772-3.058,6.827-6.827,6.827c-3.768,0-6.827-3.055-6.827-6.827V13.653H13.653v368.64
	h177.493V264.448c0-3.772,3.058-6.827,6.827-6.827c3.768,0,6.827,3.055,6.827,6.827V389.12
	C204.8,392.892,201.742,395.947,197.973,395.947z"/>
<polygon style="fill:#00E7FF;" points="352.71,198.407 266.24,145.534 266.24,177.493 88.747,177.493 88.747,218.453 
	266.24,218.453 266.24,251.279 "/>
<path style="fill:#602F75;" d="M266.24,258.106c-1.15,0-2.301-0.287-3.342-0.874c-2.15-1.205-3.485-3.485-3.485-5.953V225.28H88.747
	c-3.768,0-6.827-3.055-6.827-6.827v-40.96c0-3.772,3.058-6.827,6.827-6.827h170.667v-25.132c0-2.468,1.335-4.748,3.485-5.953
	c2.157-1.208,4.796-1.161,6.898,0.126l86.47,52.873c2.031,1.239,3.267,3.447,3.267,5.827s-1.236,4.588-3.267,5.827l-86.47,52.873
	C268.711,257.775,267.476,258.106,266.24,258.106z M95.573,211.627H266.24c3.768,0,6.827,3.055,6.827,6.827v20.654l66.557-40.701
	l-66.557-40.701v19.787c0,3.772-3.058,6.827-6.827,6.827H95.573V211.627z"/>
<g>
</g>
<g>
</g>
<g>
</g>
<g>
</g>
<g>
</g>
<g>
</g>
<g>
</g>
<g>
</g>
<g>
</g>
<g>
</g>
<g>
</g>
<g>
</g>
<g>
</g>
<g>
</g>
<g>
</g>
</svg>
