<svg id="Capa_1" enable-background="new 0 0 512 512" height="512" viewBox="0 0 512 512" width="512" xmlns="http://www.w3.org/2000/svg"><g><g><path d="m326.233 64.799-92.336 92.253 38.09 75.902 4.168 2.242 71.945-38.582 38.293-71.655z" fill="#edf5ff"/><path d="m276.155 235.196 77.646 41.761 92.336-92.254-59.744-59.744z" fill="#d6e8fd"/></g><g><path d="m106.603 385.569-106.603 104.406 10.577 10.799 58.772-49.849 46.744-55.667z" fill="#d6e8fd"/><path d="m10.577 500.774 10.36 10.577 106.602-104.407-11.446-11.686z" fill="#b6dcfe"/></g><g><path d="m428.886.649-21.157 21.157 29.818 29.818-157.936 157.937 11.09 11.09 88.776-80.514 90.317-98.58z" fill="#d6e8fd"/><path d="m290.701 220.651 10.066 10.066 157.937-157.936 32.139 32.139 21.157-21.157-42.206-42.206z" fill="#b6dcfe"/></g><g><path d="m163.043 344.673-43.763-11.94-42.796 42.796 29.669 29.669 34.535-14.383 23.213-43.365z" fill="#f37"/><path d="m106.153 405.198 28.33 28.33 42.796-42.796-13.378-43.282z" fill="#cc295f"/></g><g><path d="m233.897 157.052-115.738 115.635 1.235 59.932-.114.114 29.669 29.669 93.464-56.798 51.685-88.351z" fill="#f69"/><path d="m148.949 362.402 28.33 28.33.039-.039 60.667 1.977 115.816-115.713-59.703-59.704z" fill="#f37"/></g><g fill="#f37"><path d="m249.478 224.373-41.462-41.463-21.166 21.147 41.472 41.473z"/><path d="m206.944 266.51-41.283-41.283-21.166 21.148 41.292 41.292z"/></g></g></svg>