<?xml version="1.0" encoding="iso-8859-1"?>
<!-- Generator: Adobe Illustrator 19.0.0, SVG Export Plug-In . SVG Version: 6.00 Build 0)  -->
<svg version="1.1" id="Capa_1" xmlns="http://www.w3.org/2000/svg" xmlns:xlink="http://www.w3.org/1999/xlink" x="0px" y="0px"
	 viewBox="0 0 512 512" style="enable-background:new 0 0 512 512;" xml:space="preserve">
<circle style="fill:#1F83B5;" cx="256" cy="260.075" r="247.467"/>
<g>
	<path style="fill:#63AF3A;" d="M395.093,55.275H247.467c-28.16,0-51.2,23.04-51.2,51.2s23.04,51.2,51.2,51.2h145.067
		c14.507,0,25.6,11.093,25.6,25.6c0,14.507-11.093,25.6-25.6,25.6H294.4c-11.947,0-21.333,9.387-21.333,21.333
		s9.387,21.333,21.333,21.333h209.067C500.907,172.182,459.947,99.648,395.093,55.275z"/>
	<path style="fill:#63AF3A;" d="M341.333,396.608h-166.4c-11.947,0-21.333-9.387-21.333-21.333s9.387-21.333,21.333-21.333h110.933
		c16.213,0,29.867-13.653,29.867-29.867s-13.653-29.867-29.867-29.867H110.933c-14.507,0-25.6-11.093-25.6-25.6
		c0-14.507,11.093-25.6,25.6-25.6h25.6c9.387,0,17.067-7.68,17.067-17.067s-7.68-17.067-17.067-17.067H13.653
		C-14.507,342.848,70.827,474.262,204.8,502.422c71.68,15.36,146.773-1.707,203.947-47.787
		C403.627,421.355,375.467,396.608,341.333,396.608z"/>
</g>
<g>
	<rect x="477.867" y="4.075" style="fill:#FFC145;" width="17.067" height="17.067"/>
	<rect x="460.8" y="21.142" style="fill:#FFC145;" width="17.067" height="17.067"/>
	<rect x="494.933" y="21.142" style="fill:#FFC145;" width="17.067" height="17.067"/>
	<rect x="477.867" y="38.208" style="fill:#FFC145;" width="17.067" height="17.067"/>
	<rect x="17.067" y="439.292" style="fill:#FFC145;" width="17.067" height="17.067"/>
	<rect y="456.359" style="fill:#FFC145;" width="17.067" height="17.067"/>
	<rect x="34.133" y="456.359" style="fill:#FFC145;" width="17.067" height="17.067"/>
	<rect x="17.067" y="473.426" style="fill:#FFC145;" width="17.067" height="17.067"/>
	<rect x="426.667" y="285.675" style="fill:#FFC145;" width="17.067" height="17.067"/>
	<rect x="409.6" y="302.742" style="fill:#FFC145;" width="17.067" height="17.067"/>
	<rect x="443.733" y="302.742" style="fill:#FFC145;" width="17.067" height="17.067"/>
	<rect x="426.667" y="319.808" style="fill:#FFC145;" width="17.067" height="17.067"/>
	<rect y="4.075" style="fill:#FFC145;" width="17.067" height="17.067"/>
	<rect x="34.133" y="63.808" style="fill:#FFC145;" width="17.067" height="17.067"/>
	<rect x="307.2" y="89.408" style="fill:#FFC145;" width="17.067" height="17.067"/>
	<rect x="196.267" y="439.292" style="fill:#FFC145;" width="17.067" height="17.067"/>
	<rect x="264.533" y="464.892" style="fill:#FFC145;" width="17.067" height="17.067"/>
	<rect x="34.133" y="302.742" style="fill:#FFC145;" width="17.067" height="17.067"/>
	<rect x="460.8" y="481.959" style="fill:#FFC145;" width="17.067" height="17.067"/>
	<rect x="486.4" y="413.692" style="fill:#FFC145;" width="17.067" height="17.067"/>
</g>
<g>
</g>
<g>
</g>
<g>
</g>
<g>
</g>
<g>
</g>
<g>
</g>
<g>
</g>
<g>
</g>
<g>
</g>
<g>
</g>
<g>
</g>
<g>
</g>
<g>
</g>
<g>
</g>
<g>
</g>
</svg>
