<svg id="color" enable-background="new 0 0 24 24" height="512" viewBox="0 0 24 24" width="512" xmlns="http://www.w3.org/2000/svg"><path d="m12 0c-6.617 0-12 5.383-12 12s5.383 12 12 12 12-5.383 12-12-5.383-12-12-12z" fill="#4caf50"/><path d="m12 0c-6.617 0-12 5.383-12 12s5.383 12 12 12z" fill="#429846"/><path d="m8.787 11.84c.483.383 1.213.042 1.213-.59v-1.75h8c.553 0 1-.448 1-1s-.447-1-1-1h-8v-1.75c0-.628-.728-.976-1.213-.59l-3.5 2.75c-.182.142-.287.36-.287.59s.105.448.287.59z" fill="#fff"/><path d="m15.213 12.16c-.485-.386-1.213-.038-1.213.59v1.75h-8c-.553 0-1 .448-1 1s.447 1 1 1h8v1.75c0 .629.73.972 1.213.59l3.5-2.75c.182-.142.287-.36.287-.59s-.105-.448-.287-.59z" fill="#fff"/><g fill="#dedede"><path d="m19 8.5h-14c0 .23.105.448.287.59l3.5 2.75c.14.111.301.161.458.161.386 0 .755-.302.755-.751v-1.75h8c.553 0 1-.448 1-1z"/><path d="m19 15.5h-14c0 .552.447 1 1 1h8v1.75c0 .448.369.75.756.75.157 0 .317-.05.457-.16l3.5-2.75c.182-.142.287-.36.287-.59z"/></g></svg>