<svg height="512" viewBox="0 0 64 64" width="512" xmlns="http://www.w3.org/2000/svg"><g id="Hand-Advertisment-Marketing-Commerce-Paper"><path d="m57 11v44a2.006 2.006 0 0 1 -2 2h-36a2.006 2.006 0 0 1 -2-2v-50a2.006 2.006 0 0 1 2-2h30v6a2.006 2.006 0 0 0 2 2z" fill="#78b9eb"/><path d="m25.67 29.91-1.13.65-.6.35a1.988 1.988 0 0 0 -.73 2.73l.6 1.03 1.4 2.44a2 2 0 0 0 2.73.73l.86-.5.87-.5z" fill="#ff9811"/><path d="m57 11h-6a2.006 2.006 0 0 1 -2-2v-6z" fill="#3d9ae2"/><path d="m47.26 31.3a2 2 0 1 1 -3.47 2l-8-13.85a2 2 0 0 1 .74-2.73 1.905 1.905 0 0 1 1-.27 2 2 0 0 1 1.73 1l3.13 5.42v.01l1.73 2.99z" fill="#ff9811"/><path d="m45.86 22.88a2 2 0 0 1 -.74 2.73 1.9 1.9 0 0 1 -1 .26l-1.73-2.99v-.01a2.125 2.125 0 0 1 .73-.73 2.009 2.009 0 0 1 2.74.74z" fill="#ff5023"/><path d="m35.79 19.45 8 13.85-9.59 1.39-1.07.15-4-6.93z" fill="#e6e7e8"/><path d="m38 41.27a2.006 2.006 0 0 1 -.73 2.73l-1.73 1a2.018 2.018 0 0 1 -2.74-.73l-4-6.93.87-.5 3.46-2 1.07-.15z" fill="#c6c5ca"/><path d="m27.402 28.374h3.996v8.002h-3.996z" fill="#ff5023" transform="matrix(.866 -.5 .5 .866 -12.247 19.033)"/><path d="m24.54 30.56a2.811 2.811 0 0 0 -1.14-1.18 3 3 0 0 0 -4.1 1.09l-2.3 3.99v-12.45h-.19a3.982 3.982 0 0 0 -3.46 2l-5.01 8.67a9.963 9.963 0 0 0 -1.34 5v23.32h12v-2a3.3 3.3 0 0 0 2.64-2 12.44 12.44 0 0 0 1.36-6c0-4.42-1.79-8-4-8l4.81-8.33.69-1.2a3.012 3.012 0 0 0 .4-1.5 2.9 2.9 0 0 0 -.36-1.41z" fill="#ffc477"/><path d="m57 29.34v25.66a2.006 2.006 0 0 1 -2 2h-30.66c9.75-5.44 23.23-14.62 32.66-27.66z" fill="#5aaae7"/><path d="m57.707 10.293-8-8a1 1 0 0 0 -.707-.293h-30a3 3 0 0 0 -3 3v16.084a5.012 5.012 0 0 0 -3.521 2.426l-5 8.67a11.009 11.009 0 0 0 -1.479 5.5v23.32a1 1 0 0 0 1 1h12a1 1 0 0 0 1-1v-1.165a4.517 4.517 0 0 0 2.21-1.835h32.79a3 3 0 0 0 3-3v-44a1 1 0 0 0 -.293-.707zm-7.707-4.879 4.586 4.586h-3.586a1 1 0 0 1 -1-1zm-31 52.586a1 1 0 0 0 -1 1v1h-10v-22.32a9.006 9.006 0 0 1 1.206-4.5l5.005-8.67a3.01 3.01 0 0 1 1.789-1.384v11.074l-3.062 5.3 1.732 1 5.5-9.526a2 2 0 1 1 3.465 2l-5.5 9.526a1 1 0 0 0 .865 1.5c1.416 0 3 2.993 3 7s-1.584 7-3 7zm9.768-28.723 3 5.2-1.732 1-3-5.2zm16.32-5.143a.992.992 0 0 1 -.464.608l-1-1.732a1 1 0 0 1 1.463 1.124zm1.3 7.67a1 1 0 1 1 -1.731 1l-8-13.857a1 1 0 0 1 .865-1.5 1.049 1.049 0 0 1 .26.034 1 1 0 0 1 .607.466zm-10.721-10.578 6.523 11.3-8.529 1.23-3.323-5.756zm-2.201 14.574.207-.03 3.461 5.995a1 1 0 0 1 -.366 1.366l-1.732 1a1 1 0 0 1 -1.366-.366l-3.5-6.062zm-5.162.671-.861.5a1 1 0 0 1 -1.366-.36l-1.114-1.941.4-.7a3.971 3.971 0 0 0 .511-1.7zm26.696 19.529h-31.8a14.967 14.967 0 0 0 .8-5c0-4.176-1.424-7.516-3.49-8.614l3.3-5.712.538.937a3.007 3.007 0 0 0 4.093 1.1l3.5 6.062a2.984 2.984 0 0 0 1.822 1.4 3.034 3.034 0 0 0 .782.1 2.981 2.981 0 0 0 1.5-.4l1.733-1a3 3 0 0 0 1.1-4.1l-3.061-5.3 7.566-1.09a2.983 2.983 0 0 0 3.655.526 3.006 3.006 0 0 0 1.1-4.1l-2.5-4.33a3 3 0 0 0 -3-5.2l-2.5-4.331a2.993 2.993 0 0 0 -5.47 2.333l-6.186 7.861-3.3 1.9-.362.208a3.981 3.981 0 0 0 -6.371.723l-.449.758v-25.731a1 1 0 0 1 1-1h29v5a3 3 0 0 0 3 3h5v43a1 1 0 0 1 -1 1z"/><path d="m48.187 19.376h4v2h-4z" transform="matrix(.866 -.5 .5 .866 -3.465 27.818)"/><path d="m44.016 15.362h4.242v2h-4.242z" transform="matrix(.259 -.966 .966 .259 18.391 56.693)"/><path d="m50.638 23.767h2v4.243h-2z" transform="matrix(.259 -.966 .966 .259 13.27 69.07)"/><path d="m22 8h2v2h-2z"/><path d="m26 8h6v2h-6z"/><path d="m22 12h10v2h-10z"/><path d="m42 50h10v2h-10z"/><path d="m50 46h2v2h-2z"/><path d="m42 46h6v2h-6z"/><path d="m42 42h2v2h-2z"/><path d="m46 42h6v2h-6z"/></g></svg>