<svg id="flat" height="512" viewBox="0 0 512 512" width="512" xmlns="http://www.w3.org/2000/svg"><path d="m360 80h128v192h-128z" fill="#f6bb00"/><path d="m104 80h224v296h-224z" fill="#b1792c"/><path d="m24 168h224v288h-224z" fill="#f6bb00"/><path d="m272 104-24 16h-64l-24-16v-40h112z" fill="#f6bb00"/><path d="m184 264v40l-32 24h-32l-32-24v-40z" fill="#486be0"/><path d="m136 296 48-32-48-32-48 32z" fill="#548aff"/><g fill="#de9400"><path d="m384 128h24v16h-24z"/><path d="m104 352h24v16h-24z"/><path d="m144 352h24v16h-24z"/><path d="m424 128h40v16h-40z"/><path d="m384 168h40v16h-40z"/><path d="m440 168h24v16h-24z"/><path d="m384 208h16v16h-16z"/><path d="m416 208h48v16h-48z"/><path d="m72 384h40v16h-40z"/><path d="m128 384h72v16h-72z"/></g><path d="m384 56h16v48h-16z" fill="#e5e7e9"/><path d="m416 56h16v48h-16z" fill="#e5e7e9"/><path d="m448 56h16v48h-16z" fill="#e5e7e9"/><path d="m320 304h168v112h-168z" fill="#eda600"/><path d="m280 344h168v112h-168z" fill="#f6bb00"/><path d="m368 376h16v16h-16z" fill="#de9400"/><path d="m312 376h40v16h-40z" fill="#de9400"/><path d="m352 408h64v16h-64z" fill="#de9400"/><path d="m312 408h24v16h-24z" fill="#de9400"/></svg>