<svg id="Capa_1" enable-background="new 0 0 512 512" height="512" viewBox="0 0 512 512" width="512" xmlns="http://www.w3.org/2000/svg"><g><path d="m106.65 426.31-81.03 81.28c-5.84 5.86-15.33 5.89-21.21.03-5.87-5.85-5.88-15.34-.03-21.21l81.09-81.34z" fill="#e6faff"/><path d="m106.65 426.31c-14.759 14.805-72.98 73.205-81.03 81.28-5.84 5.86-15.33 5.89-21.21.03-.01-.01-.01-.01-.01-.02l91.78-91.78z" fill="#ccf8ff"/><path d="m169.44 407.38-33.75 33.84c-5.884 5.926-15.448 5.833-21.24 0l-42.36-42.49c-5.84-5.85-5.84-15.33 0-21.18l33.8-33.9c28.925 36.138 27.539 34.85 29.09 36.08z" fill="#f4425c"/><path d="m169.44 407.38c-35.945 36.041-32.803 32.89-33.75 33.84-5.88 5.93-15.45 5.83-21.24 0-2.23-2.237 8.076 8.102-21.8-21.87l40.97-40.97c.934 1.132-2.447-1.67 35.82 29z" fill="#dd124c"/><path d="m222.42 439.14c-5.4 5.43-14.03 5.91-20.01 1.11l-70.56-56.62c-.87-.69-1.65-1.48-2.34-2.34l-56.52-70.86c-4.75-5.96-4.28-14.54 1.1-19.94 2.426-2.436 54.238-54.393 119.072-119.431 2.767-.001 4.317-.001 7.084-.002l141.209 141.638c.002 2.756.003 4.3.005 7.056-19.403 19.46-112.779 113.11-119.04 119.389z" fill="#f4425c"/><path d="m341.46 312.69v7.06c-19.4 19.46-112.78 113.11-119.04 119.39-5.4 5.43-14.03 5.91-20.01 1.11-.101-.081-71.3-57.145-72.35-58.31l140.43-140.43z" fill="#dd124c"/><path d="m443.41 217.48c5.84-5.86 5.84-15.33 0-21.18l-127.08-127.48c-5.86-5.88-15.39-5.88-21.25 0-31.417 31.512-62.446 62.636-90.879 91.157l148.494 148.494c45.47-45.608 86.331-86.593 90.715-90.991z" fill="#84eef9"/><path d="m443.41 217.48c-3.266 3.282-88.781 89.045-90.72 90.99l-74.58-74.58c1.269-1.269-13.286 13.286 101.55-101.55 75.07 75.318 62.269 62.475 63.75 63.96 5.84 5.85 5.84 15.32 0 21.18z" fill="#22e0e0"/><path d="m507.623 89.324c-9.726-9.756-75.939-76.173-84.652-84.913-5.85-5.869-15.348-5.881-21.213-.033-5.867 5.849-5.881 15.347-.033 21.213l31.028 31.123c-4.852 4.866-159.919 160.422-160.063 160.566l21.21 21.21c6.014-6.033 142.567-143.012 160.033-160.531l32.444 32.544c5.839 5.859 15.337 5.891 21.213.033 5.867-5.848 5.882-15.346.033-21.212z" fill="#004071"/><path d="m507.59 110.54c-5.88 5.85-15.37 5.82-21.21-.04l-32.45-32.54c-3.967 3.984-152.397 152.873-160.03 160.53l-10.19-10.19c7.409-7.409 177.06-177.07 181.5-181.51 18.77 18.81 37.58 37.68 42.41 42.53 5.85 5.87 5.84 15.37-.03 21.22z" fill="#00244c"/><path d="m389.6 142.49-95.7 96-21.21-21.21 95.7-96z" fill="#005a96"/><path d="m389.6 142.49c-1.043 1.046 11.855-11.892-95.7 96l-10.19-10.19c107.721-107.721 94.806-94.806 95.85-95.85z" fill="#004071"/><path d="m362.27 298.86-21.17 21.24-148.27-148.72 21.18-21.24z" fill="#005a96"/><path d="m362.27 298.86c-8.725 8.751-13.87 13.915-21.17 21.24l-74.49-74.71c1.748-1.747 15.908-15.907 21.21-21.21 6.958 6.979 67.666 67.875 74.45 74.68z" fill="#004071"/><g fill="#dd124c"><path d="m174.245 301.495c-5.855 5.855-15.365 5.835-21.21-.03l-44.925-45.095 21.17-21.24 45.005 45.155c5.85 5.86 5.83 15.36-.04 21.21z"/><path d="m216.575 258.965c-5.86 5.84-15.35 5.85-21.21-.03l-44.895-45.055 21.18-21.25 44.955 45.125c5.85 5.87 5.84 15.36-.03 21.21z"/></g></g></svg>